<svg width="20" height="18" viewBox="0 0 20 18" fill="none" xmlns="http://www.w3.org/2000/svg">
<path d="M3.95692 8.55686L1.638 8.91689L1.54839 8.33984L2.12547 8.25022L1.40478 3.60883L0.827699 3.69844L0.737549 3.11783L1.31462 3.02822L1.22447 2.4476L1.80509 2.35745L1.71493 1.77683L2.29555 1.68668L2.47585 2.84791L3.05647 2.75775L3.14663 3.33837L2.56601 3.42853L3.2867 8.06994L3.86731 7.97975L3.95692 8.55686ZM8.01772 7.9263L5.69525 8.28691L5.60563 7.70985L6.18625 7.61971L5.46555 2.9783L4.88494 3.06846L4.79478 2.48784L3.05647 2.75775L2.96632 2.17714L5.28524 1.81707L5.3754 2.39769L5.95602 2.30753L6.04616 2.88815L6.62678 2.79799L7.34748 7.43938L7.9281 7.34924L8.01772 7.9263ZM12.0785 7.29579L9.75601 7.6564L9.66639 7.07929L10.247 6.98915L9.52631 2.34777L8.94569 2.43792L8.85555 1.85731L7.11726 2.12722L7.02712 1.54661L9.34603 1.18654L9.43617 1.76716L10.0168 1.677L10.1069 2.25762L10.6875 2.16746L11.4082 6.80887L11.9889 6.71868L12.0785 7.29579ZM7.2074 2.70784L6.62678 2.79799L6.53664 2.21738L7.11726 2.12722L7.2074 2.70784Z" fill="currentColor"/>
<path d="M18.4513 7.39792L15.6283 8.19818L15.469 7.63637L14.9037 7.79658L14.7434 7.23132L14.1782 7.39153L13.8576 6.26095L13.2958 6.42022L12.816 4.72778L13.3779 4.56847L13.0574 3.43789L13.6227 3.27764L13.783 3.84294L17.1713 2.88244L17.011 2.31714L16.4458 2.47739L16.2855 1.91208L14.0277 2.55209L13.8675 1.98679L16.6905 1.18654L16.8508 1.75184L17.4161 1.59159L17.5763 2.15689L18.1416 1.99664L18.4621 3.12725L13.9432 4.40826L14.4229 6.10069L14.9883 5.94043L15.3087 7.07106L15.874 6.9108L16.0343 7.47611L18.2921 6.83612L18.4513 7.39792ZM14.188 3.1174L13.6227 3.27764L13.4624 2.71234L14.0277 2.55209L14.188 3.1174ZM19.2624 5.95028L18.6971 6.11054L18.5368 5.54523L19.1022 5.38502L19.2624 5.95028ZM18.8573 6.67586L18.2921 6.83612L18.1318 6.2708L18.6971 6.11054L18.8573 6.67586Z" fill="currentColor"/>
<path d="M3.99232 16.4346L2.82218 16.3263L2.95728 14.8672L2.37221 14.813L2.50764 13.3503L1.92257 13.2962L2.05767 11.837L1.47616 11.7832L1.61159 10.3205L0.737549 10.2396L0.791722 9.6545L7.80187 10.3036L7.74768 10.8886L6.87008 10.8074L6.73466 12.2701L7.31973 12.3243L7.18462 13.7833L7.7697 13.8375L7.63428 15.3002L8.21935 15.3544L8.08424 16.8135L6.9141 16.7051L7.0492 15.246L6.46413 15.1919L6.59955 13.7292L6.01448 13.675L6.14958 12.2159L5.56451 12.1617L5.69998 10.6991L2.77816 10.4285L2.64273 11.8912L3.22781 11.9454L3.09271 13.4045L3.67778 13.4587L3.54235 14.9214L4.1274 14.9755L3.99232 16.4346ZM10.2415 12.5948L9.65645 12.5406L9.79187 11.0779L8.91783 10.997L8.97202 10.4119L11.3087 10.6283L11.2546 11.2133L10.3769 11.1321L10.2415 12.5948ZM5.42941 13.6208L4.84795 13.567L4.983 12.1079L5.56451 12.1617L5.42941 13.6208ZM9.52135 13.9997L8.93628 13.9455L9.07138 12.4864L9.65645 12.5406L9.52135 13.9997ZM4.71248 15.0297L4.1274 14.9755L4.26288 13.5128L4.84795 13.567L4.71248 15.0297ZM8.80086 15.4082L8.21935 15.3544L8.35477 13.8917L8.93628 13.9455L8.80086 15.4082Z" fill="currentColor"/>
<path d="M16.4768 11.3708L15.8907 11.4127L15.8487 10.8266L15.2662 10.8683L15.2243 10.2822L13.173 10.429L13.1311 9.84295L15.7649 9.6545L15.8068 10.2406L16.3929 10.1986L16.4768 11.3708ZM15.9362 16.1149L13.0059 16.3246L12.9642 15.7421L12.3817 15.7838L12.2768 14.3186L12.8593 14.2769L12.9223 15.156L13.5083 15.1141L13.5503 15.7001L15.3085 15.5743L15.2665 14.9882L15.8526 14.9463L15.7688 13.7742L15.1827 13.8161L15.1407 13.23L13.9686 13.3139L13.9266 12.7278L12.7545 12.8117L12.7128 12.2292L12.1303 12.2709L12.0464 11.0987L12.6289 11.0571L12.587 10.4709L13.173 10.429L13.2569 11.6012L13.843 11.5592L13.8849 12.1453L15.0571 12.0614L15.0988 12.644L16.2674 12.5603L16.3093 13.1464L16.8953 13.1045L17.0212 14.8627L16.4351 14.9046L16.4771 15.4907L15.8946 15.5324L15.9362 16.1149Z" fill="currentColor"/>
</svg>
