<svg width="32" height="32" viewBox="0 0 32 32" fill="none" xmlns="http://www.w3.org/2000/svg">
<path d="M6.33122 15.6912L2.62082 16.2672L2.47682 15.344L3.40002 15.2L2.24802 7.77438L1.32482 7.91838L1.18082 6.98878L2.10402 6.84479L1.96002 5.91678L2.88802 5.77279L2.74402 4.84318L3.67202 4.69919L3.96002 6.55518L4.88962 6.41118L5.03362 7.34079L4.10562 7.48478L5.25762 14.912L6.18722 14.768L6.33122 15.6912ZM12.8272 14.6832L9.11202 15.2592L8.96802 14.336L9.89762 14.192L8.74562 6.76478L7.81602 6.90879L7.67202 5.98078L4.88962 6.41118L4.74562 5.48478L8.45762 4.90878L8.60162 5.83679L9.52962 5.69279L9.67362 6.62078L10.6016 6.47679L11.7552 13.9024L12.6848 13.7584L12.8272 14.6832ZM19.3264 13.6736L15.6096 14.2496L15.4656 13.3264L16.3952 13.1824L15.2432 5.75679L14.3136 5.90078L14.1696 4.97279L11.3872 5.40479L11.2432 4.47519L14.9536 3.89919L15.0976 4.82719L16.0256 4.68319L16.1696 5.61118L17.1008 5.46719L18.2528 12.8944L19.1808 12.7504L19.3264 13.6736ZM11.5312 6.33278L10.6016 6.47679L10.4592 5.54878L11.3872 5.40479L11.5312 6.33278ZM29.5216 13.8368L25.0048 15.1168L24.7504 14.2176L23.8464 14.4736L23.5904 13.5696L22.6848 13.8256L22.1728 12.0176L21.2736 12.2736L20.5056 9.56479L21.4048 9.30878L20.8928 7.50078L21.7968 7.24479L22.0528 8.14878L27.4736 6.61278L27.2176 5.70718L26.3136 5.96318L26.0576 5.05918L22.4448 6.08319L22.1888 5.17919L26.7056 3.89919L26.9616 4.80319L27.8656 4.54719L28.1216 5.45119L29.0272 5.19519L29.5392 7.00319L22.3088 9.05278L23.0768 11.7616L23.9808 11.5056L24.4928 13.3136L25.3984 13.0576L25.6544 13.9616L29.2672 12.9376L29.5216 13.8368ZM22.7008 6.98878L21.7968 7.24479L21.5408 6.33918L22.4448 6.08319L22.7008 6.98878ZM30.8192 11.52L29.9152 11.776L29.6592 10.872L30.5632 10.616L30.8192 11.52ZM30.1712 12.6816L29.2672 12.9376L29.0112 12.0336L29.9152 11.776L30.1712 12.6816ZM6.38722 28.296L4.51522 28.1216L4.73122 25.7872L3.79522 25.7008L4.01282 23.36L3.07682 23.2736L3.29282 20.9392L2.36162 20.8528L2.57922 18.512L1.18082 18.384L1.26722 17.448L12.4832 18.4864L12.3968 19.4224L10.992 19.2912L10.776 21.632L11.712 21.7184L11.496 24.0544L12.432 24.1392L12.2144 26.48L13.1504 26.5664L12.9344 28.9024L11.0624 28.728L11.2784 26.3936L10.3424 26.3072L10.56 23.9664L9.62242 23.88L9.84002 21.544L8.90402 21.4592L9.12002 19.1184L4.44482 18.6864L4.22882 21.0256L5.16482 21.112L4.94882 23.448L5.88482 23.5344L5.66722 25.8736L6.60322 25.9616L6.38722 28.296ZM16.3872 22.152L15.4496 22.0656L15.6672 19.7248L14.2688 19.5952L14.3552 18.6592L18.0944 19.0048L18.008 19.9408L16.6032 19.8128L16.3872 22.152ZM8.68642 23.792L7.75682 23.7056L7.97282 21.3696L8.90402 21.4592L8.68642 23.792ZM15.2336 24.4L14.2976 24.312L14.5136 21.9776L15.4496 22.0656L15.2336 24.4ZM7.53922 26.048L6.60322 25.9616L6.82082 23.6208L7.75682 23.7072L7.53922 26.048ZM14.0816 26.6528L13.1504 26.5664L13.368 24.2272L14.2976 24.312L14.0816 26.6528ZM26.3632 20.192L25.4256 20.2608L25.3584 19.3232L24.4256 19.3888L24.3584 18.4512L21.0768 18.6864L21.0096 17.7488L25.224 17.448L25.2912 18.3856L26.2288 18.3184L26.3632 20.192ZM25.4992 27.784L20.8096 28.12L20.7424 27.1872L19.8112 27.2544L19.6432 24.9104L20.5744 24.8432L20.6752 26.2496L21.6128 26.1824L21.68 27.12L24.4928 26.9184L24.4272 25.9808L25.3648 25.9136L25.2304 24.0384L24.2928 24.1056L24.2256 23.168L22.3504 23.3024L22.2832 22.3648L20.408 22.4992L20.3408 21.5664L19.408 21.6336L19.2736 19.7584L20.2064 19.6912L20.1392 18.7536L21.0768 18.6864L21.2112 20.5616L22.1488 20.4944L22.216 21.432L24.0912 21.2976L24.1584 22.2304L26.0272 22.096L26.0944 23.0336L27.032 22.9664L27.2336 25.7808L26.296 25.848L26.3632 26.7856L25.432 26.8512L25.4992 27.784Z" fill="black"/>
</svg>
