<svg width="522" height="254" viewBox="0 0 522 254" fill="none" xmlns="http://www.w3.org/2000/svg">
<path d="M13.3112 108.242V24.7914L65.3037 108.242H80.2776L132.27 24.7914V108.242H145.58V4.18896H129.15L72.7906 94.715L16.4308 4.18896H0.00112901V108.242H13.3112ZM174.487 108.242L186.341 83.6854H250.395L262.25 108.242H276.6L227.311 4.18896H209.425L160.136 108.242H174.487ZM244.572 70.3665H192.164L218.368 17.0915L244.572 70.3665ZM304.467 108.242V62.8747L337.56 62.8755L383.079 108.242H401.381L349.181 56.2154L401.381 4.18896H383.079L337.56 49.5573L304.467 49.5559V4.18896H291.157V56.2154V108.242H304.467ZM499.126 108.242V94.9226H429.248V62.8747H499.126V49.5559H429.248V17.5077H499.126V4.18896H415.938V108.242H499.126ZM13.3111 247.732H74.6624C79.9309 247.732 84.8183 246.413 89.3239 243.778C93.8302 241.141 97.4007 237.569 100.035 233.061C102.669 228.551 103.986 223.661 103.986 218.389C103.986 213.117 102.669 208.227 100.035 203.718C98.1532 200.497 95.7937 197.754 92.957 195.489L92.793 195.362L93.2195 194.99C95.3716 193.076 97.2076 190.857 98.7259 188.331L99.0987 187.693C101.664 183.185 102.947 178.294 102.947 173.022C102.947 167.75 101.664 162.859 99.0987 158.35C96.5342 153.842 92.998 150.269 88.4924 147.633C83.9861 144.997 79.0987 143.679 73.8305 143.679H0.00112901L0 189.048L0.00112901 202.365V247.732H13.3111ZM13.3111 156.998H73.8305C78.2672 156.998 82.045 158.559 85.165 161.681C88.2844 164.802 89.8444 168.583 89.8444 173.022C89.8444 177.461 88.2844 181.242 85.165 184.364C82.045 187.485 78.2672 189.046 73.8305 189.046L13.3111 189.048V156.998ZM74.6624 202.365C79.0987 202.365 82.8772 203.926 85.9965 207.047C89.1166 210.169 90.6759 213.949 90.6759 218.389C90.6759 222.829 89.1166 226.609 85.9965 229.731C82.8772 232.852 79.0987 234.413 74.6624 234.413L13.3111 234.413V202.365L73.8305 202.365H74.6624ZM166.376 249.813C174.002 249.813 180.969 247.94 187.277 244.194C193.586 240.448 198.612 235.419 202.356 229.106C206.099 222.794 207.971 215.822 207.971 208.192V143.679H194.661V208.192C194.661 213.325 193.378 218.042 190.813 222.343C188.248 226.644 184.816 230.078 180.519 232.644C176.22 235.211 171.506 236.494 166.376 236.494C161.247 236.494 156.533 235.211 152.235 232.644C147.936 230.078 144.505 226.644 141.94 222.343C139.375 218.042 138.093 213.325 138.093 208.192V143.679H124.783V208.192C124.783 215.822 126.654 222.794 130.398 229.106C134.141 235.419 139.167 240.448 145.475 244.194C151.784 247.94 158.751 249.813 166.376 249.813ZM291.157 247.732V234.413H266.617V156.998H291.157V143.679H228.766V156.998H253.306V234.413H228.766V247.732H291.157ZM374.343 247.732V234.413H325.263V143.679H311.952V247.732H374.343ZM470.007 247.732C479.435 247.732 488.136 245.408 496.108 240.76C504.08 236.112 510.388 229.8 515.033 221.823C519.678 213.845 522 205.139 522 195.705C522 186.272 519.678 177.565 515.033 169.588C510.388 161.611 504.08 155.298 496.108 150.651C488.136 146.003 479.435 143.679 470.007 143.679H395.138V247.732H470.007ZM470.007 234.413H408.449V156.998H470.007C477.078 156.998 483.56 158.732 489.453 162.201C495.345 165.669 500.025 170.351 503.491 176.247C506.957 182.144 508.69 188.63 508.69 195.705C508.69 202.781 506.957 209.267 503.491 215.163C500.025 221.06 495.345 225.742 489.453 229.21C483.56 232.679 477.078 234.413 470.007 234.413Z" fill="white"/>
</svg>
