<svg width="296" height="254" viewBox="0 0 296 254" fill="none" xmlns="http://www.w3.org/2000/svg">
<path d="M58.5627 120.887L24.2426 126.216L22.9165 117.675L31.4572 116.349L20.791 47.6564L12.2502 48.9825L10.916 40.3895L19.4567 39.0633L18.1224 30.4702L26.7156 29.1359L25.3813 20.5427L33.9744 19.2085L36.6429 36.3947L45.2361 35.0604L46.5704 43.6535L37.9772 44.9878L48.6434 113.681L57.2365 112.346L58.5627 120.887ZM118.662 111.555L84.2899 116.892L82.9636 108.351L91.5568 107.017L80.8904 38.3245L72.2974 39.6588L70.9631 31.0657L45.2361 35.0604L43.9018 26.4673L78.2219 21.1382L79.5562 29.7314L88.1494 28.3971L89.4835 36.9902L98.0767 35.6559L108.743 104.348L117.336 103.014L118.662 111.555ZM178.762 102.223L144.389 107.56L143.063 99.0192L151.656 97.6851L140.99 28.9926L132.396 30.3269L131.062 21.7338L105.336 25.7285L104.002 17.1354L138.321 11.8064L139.656 20.3995L148.249 19.0652L149.583 27.6584L158.176 26.3241L168.842 95.0169L177.435 93.6821L178.762 102.223ZM106.67 34.3217L98.0767 35.6559L96.7426 27.0628L105.336 25.7285L106.67 34.3217Z" fill="white"/>
<path d="M273.08 103.735L231.299 115.579L228.942 107.264L220.575 109.635L218.203 101.269L209.837 103.64L205.094 86.9077L196.778 89.2648L189.678 64.2168L197.994 61.8589L193.25 45.1264L201.617 42.7547L203.989 51.1212L254.136 36.9057L251.764 28.5393L243.398 30.911L241.026 22.5444L207.611 32.0166L205.24 23.6502L247.021 11.8064L249.393 20.1728L257.759 17.8012L260.131 26.1676L268.497 23.7959L273.24 40.5289L206.36 59.4878L213.46 84.5358L221.827 82.164L226.57 98.8973L234.937 96.5254L237.309 104.892L270.723 95.4202L273.08 103.735ZM209.983 40.3831L201.617 42.7547L199.245 34.3883L207.611 32.0166L209.983 40.3831ZM285.084 82.3098L276.718 84.6817L274.346 76.315L282.713 73.9439L285.084 82.3098ZM279.089 93.0483L270.723 95.4202L268.351 87.0535L276.718 84.6817L279.089 93.0483Z" fill="white"/>
<path d="M59.0866 237.477L41.7686 235.874L43.7681 214.279L35.109 213.477L37.1134 191.83L28.4543 191.028L30.4538 169.433L21.8474 168.636L23.8518 146.988L10.916 145.791L11.7178 137.132L115.468 146.738L114.666 155.397L101.677 154.195L99.6732 175.842L108.332 176.644L106.333 198.239L114.992 199.041L112.988 220.688L121.647 221.49L119.647 243.085L102.329 241.481L104.329 219.886L95.6694 219.085L97.6736 197.437L89.0146 196.635L91.0141 175.04L82.3551 174.238L84.3601 152.592L41.1171 148.587L39.1128 170.235L47.7718 171.037L45.7723 192.632L54.4314 193.434L52.427 215.081L61.0859 215.883L59.0866 237.477ZM151.575 180.648L142.916 179.846L144.92 158.199L131.984 157.001L132.786 148.342L167.37 151.544L166.568 160.203L153.579 159.001L151.575 180.648ZM80.3555 195.833L71.7499 195.037L73.7487 173.442L82.3551 174.238L80.3555 195.833ZM140.916 201.441L132.257 200.639L134.257 179.044L142.916 179.846L140.916 201.441ZM69.745 216.685L61.0859 215.883L63.0909 194.235L71.7499 195.037L69.745 216.685ZM130.253 222.287L121.647 221.49L123.651 199.843L132.257 200.639L130.253 222.287Z" fill="white"/>
<path d="M243.856 162.533L235.182 163.153L234.561 154.479L225.94 155.096L225.319 146.422L194.961 148.595L194.34 139.921L233.32 137.132L233.94 145.806L242.614 145.184L243.856 162.533ZM235.856 232.745L192.486 235.849L191.87 227.228L183.249 227.845L181.697 206.16L190.318 205.543L191.249 218.554L199.923 217.933L200.543 226.607L226.565 224.745L225.944 216.071L234.618 215.451L233.377 198.103L224.703 198.723L224.082 190.05L206.734 191.291L206.114 182.617L188.766 183.859L188.149 175.237L179.528 175.854L178.286 158.506L186.907 157.89L186.287 149.215L194.961 148.595L196.202 165.942L204.876 165.322L205.497 173.996L222.845 172.755L223.462 181.376L240.756 180.138L241.377 188.812L250.051 188.191L251.913 214.213L243.239 214.833L243.861 223.508L235.239 224.124L235.856 232.745Z" fill="white"/>
</svg>
