<svg width="500" height="500" viewBox="0 0 500 500" fill="none" xmlns="http://www.w3.org/2000/svg">
<path d="M500 0V500.003H0V0H500ZM72.1982 356.52C52.8642 356.52 33.4014 365.876 33.4014 386.772C33.4019 428.249 100.138 407.668 100.138 436.665C100.138 451.639 82.3619 455.696 73.0059 455.696C55.5439 455.696 44.0078 446.332 44.0078 430.428V429.807H29.9697V430.743C29.9698 455.067 47.31 468.165 72.8838 468.165C93.4608 468.165 114.168 458.183 114.168 436.044C114.168 394.252 47.4313 413.282 47.4307 386.15C47.4307 373.67 60.2169 368.992 71.1318 368.992C86.7288 368.992 96.3994 377.102 96.3994 390.825V391.761H110.43V390.825C110.43 369.614 94.9631 356.52 72.1982 356.52ZM430.526 356.52C411.185 356.52 391.729 365.876 391.729 386.772C391.729 428.249 458.773 407.668 458.773 436.665C458.773 451.64 440.69 455.696 431.341 455.696C414.179 455.696 402.329 446.333 402.329 430.428V429.807H388.291V430.743C388.291 455.067 405.638 468.165 431.52 468.165C452.112 468.165 472.811 458.183 472.811 436.044C472.81 394.252 405.767 413.282 405.767 386.15C405.767 373.671 418.546 368.992 429.769 368.992C445.365 368.992 455.035 377.101 455.035 390.825V391.761H469.066V390.825C469.066 369.615 453.598 356.52 430.526 356.52ZM169.99 356.52C147.54 356.52 127.891 366.501 127.891 391.139V392.075H141.929V391.139C141.929 375.228 153.781 368.999 168.44 368.999C185.901 368.999 194.006 375.228 194.006 389.266C194.006 400.176 188.71 401.427 178.725 402.674L173.429 403.303C148.791 406.106 123.526 408.914 123.525 436.976C123.525 456.313 136.627 468.164 158.462 468.164C177.482 468.164 189.64 459.748 194.943 448.204C194.943 448.241 194.946 459.442 196.501 465.047H210.424C209.18 461.927 208.294 451.324 208.294 446.34V388.952C208.294 366.187 194.32 356.52 169.99 356.52ZM249.521 465.045H264.803L300.97 359.636H285.959L257.312 448.959L228.358 359.636H212.097L249.521 465.045ZM307.837 465.045H322.497V359.636H307.837V465.045ZM336.842 465.045H351.495V319.717H336.842V465.045ZM365.54 465.045H380.2V319.717H365.54V465.045ZM194.007 424.193H194.006C194.006 432.301 191.204 439.789 185.901 445.403C179.354 451.947 169.991 455.692 159.391 455.692C149.105 455.692 137.562 450.078 137.562 436.669C137.562 420.451 155.024 416.713 173.736 414.523L183.715 413.279C186.53 412.972 191.827 412.029 194.007 410.163V424.193ZM315.015 322.065C309.775 322.066 305.194 326.322 305.194 331.565C305.195 337.133 309.775 341.385 315.015 341.385C320.201 341.385 324.741 337.216 324.83 331.729C324.831 331.783 324.835 331.838 324.835 331.893V331.565C324.835 331.62 324.831 331.674 324.83 331.729C324.741 326.237 320.201 322.065 315.015 322.065Z" fill="white"/>
</svg>
