<svg width="450" height="272" viewBox="0 0 450 272" fill="none" xmlns="http://www.w3.org/2000/svg">
<g clip-path="url(#clip0_234_218)">
<path d="M196.279 195.073C196.279 209.254 190.711 217.304 163.087 217.304C159.456 217.304 156.3 217.086 153.156 216.651V29.1049C153.156 14.8729 157.993 0.00146484 185.861 0.00146484C189.504 0.00146484 192.892 0.321226 196.279 1.08937V195.073ZM137.157 166.673C137.157 193.038 119.951 212.325 85.0527 216.101C59.6099 218.827 22.774 215.64 5.3371 213.656C4.60592 210.802 4.11869 207.257 4.11869 204.403C4.11869 181.366 16.4743 176.042 28.3551 176.042C40.467 176.042 59.6099 178.243 73.9155 178.243C89.415 178.243 94.2647 172.971 94.2647 167.902C94.2647 161.273 87.9651 158.521 75.8531 156.23L42.4044 149.818C14.7805 144.507 0 125.45 0 105.178C0 80.4513 17.4492 59.8077 51.8602 56.058C77.7903 53.2039 109.533 56.3909 126.982 58.5023C127.701 61.4717 127.945 64.3511 127.945 67.3205C127.945 90.3828 115.833 95.3613 103.952 95.3613C95.2396 95.3613 81.1778 93.6975 65.1909 93.6975C48.948 93.6975 42.1608 98.1898 42.1608 103.603C42.1608 109.35 48.7042 111.654 58.6474 113.51L90.6336 119.359C123.107 125.309 137.157 143.854 137.157 166.673ZM312.112 267.665C315.755 269.572 323.018 271.747 332.474 271.99C348.46 272.298 357.185 266.257 363.728 251.807L450 60.0253C446.612 58.1571 438.607 56.0324 432.063 55.9557C421.157 55.7127 406.133 57.914 396.689 80.5157L368.822 146.247L314.049 57.3634C310.418 56.2755 301.937 54.7525 295.638 54.7525C276.251 54.7525 265.345 61.8046 254.196 73.9242L201.129 132.054L243.777 199.181C251.783 211.455 262.201 217.713 278.92 217.713C290.069 217.713 299.269 215.179 303.631 213.08L252.258 135.651L288.607 96.9611L348.46 190.811" fill="white"/>
</g>
<defs>
<clipPath id="clip0_234_218">
<rect width="450" height="272" fill="white" transform="translate(0 0.00146484)"/>
</clipPath>
</defs>
</svg>
