<svg width="426" height="280" viewBox="0 0 426 280" fill="none" xmlns="http://www.w3.org/2000/svg">
<path fill-rule="evenodd" clip-rule="evenodd" d="M0.785645 70.2964C0.785645 24.2763 18.9168 0.425537 49.475 0.425537C80.0282 0.425537 98.1643 24.2763 98.1643 70.2964V209.706C98.1643 255.727 80.033 279.577 49.475 279.577C18.9168 279.577 0.785645 255.727 0.785645 209.706V70.2964ZM328.778 0.425537H228.141C137.858 0.425537 130.742 39.4147 130.742 91.4004L130.623 188.467C130.623 242.667 137.424 279.577 228.492 279.577H328.778C419.351 279.577 426.006 240.723 426.006 188.738V91.5358C426.006 39.4147 419.061 0.425537 328.778 0.425537Z" fill="white"/>
</svg>
